# xmcd
#
# Track frame offsets:
#	150
#	27882
#	41692
#	63525
#	84710
#	102125
#	116287
#	136932
#	147645
#	172715
#	190380
#
# Disc length: 2752 seconds
# Revision: 2
# Processed by: cddbd v1.5.2PL0 Copyright (c) Steve Scherf et al.
# Submitted via: dBpowerAMP V12.0
#
DISCID=930abe0b
DTITLE=Dave Stamey - Tonopah
DYEAR=2007
DGENRE=Country
TTITLE0=Tonopah
TTITLE1=Going to the West
TTITLE2=Desert Trails
TTITLE3=Rosa May
TTITLE4=The Bones of Benny Gray
TTITLE5=Opal
TTITLE6=The Vaquero Song
TTITLE7=Dear John
TTITLE8=The Border Affair
TTITLE9=The Circle
TTITLE10=May the Trail Rise Up to Greet You
EXTD=
EXTT0=
EXTT1=
EXTT2=
EXTT3=
EXTT4=
EXTT5=
EXTT6=
EXTT7=
EXTT8=
EXTT9=
EXTT10=
PLAYORDER=
